<?xml version="1.0" encoding="utf-8"?>
<!-- Generator: Adobe Illustrator 25.2.0, SVG Export Plug-In . SVG Version: 6.00 Build 0)  -->
<svg version="1.1" id="Layer_1" xmlns="http://www.w3.org/2000/svg" xmlns:xlink="http://www.w3.org/1999/xlink" x="0px" y="0px"
	 viewBox="0 0 1500 1000" style="enable-background:new 0 0 1500 1000;" xml:space="preserve">
<style type="text/css">
	.st0{fill:#F22A2A;}
</style>
<g>
	<path d="M679.61,584.9c-25.86-21.46-41.52-50.99-41.52-84.91c0-30.06,10.92-55.75,32.78-77.05c3.12-3.04,6.33-5.87,9.64-8.47
		c4.4-3.47,5.19-9.2,2.73-14.08c-2.93-5.82-9.4-6.82-15.3-5.35c-14.12,3.52-24.41,15.67-33.34,26.38
		c-7.71,9.24-16.02,18.05-24.03,27.03c-3.52,3.94-7.03,7.88-10.55,11.82l-11.8,12.64c-1.51,1.43-3.11,3.03-4.02,4.31l-0.77,0.82
		v-83.71h-58.56v211.31h58.56v-54.94l21.13-23.55c0,0,0.6,0,0.6,0c4.31,4.31,7.43,11.38,10.77,16.51
		c3.76,5.77,7.51,11.53,11.28,17.3c6.73,10.32,12.96,21.57,20.98,30.95c6.16,7.21,14.34,13.96,24.3,13.69
		c7.18-0.2,15.28-7.89,11.84-15.5C683.35,587.96,681.43,586.41,679.61,584.9z"/>
	<path d="M916.58,464.28v13.5l-36.38-40.09c-5.96-7.12-11.85-14.31-18.25-21.05c-8.72-9.19-19.45-20.03-32.56-22.01
		c-5.26-0.79-10.15,0.83-12.63,5.77c-4.01,7.97,1.4,12.76,6.95,17.58c23.6,20.5,38.2,50.63,38.2,82.03
		c0,33.92-15.67,63.45-41.52,84.91c-1.82,1.51-3.74,3.06-4.71,5.21c-3.44,7.61,4.66,15.3,11.84,15.5
		c9.97,0.27,18.14-6.47,24.3-13.69c8.02-9.38,14.24-20.64,20.98-30.95c3.76-5.76,7.52-11.53,11.28-17.3
		c3.34-5.13,6.46-12.19,10.77-16.51c0,0,0.6,0,0.6,0l21.13,23.55v54.94h58.56V464.28H916.58z"/>
	<path d="M776.37,452.31c-14.44-8.78-33.75-10.74-49.21-3.38c-20.18,9.61-29.8,30.36-29.2,51.17c0.34,11.71,3.9,23.43,10.64,33.21
		c2.8,4.06,6.09,7.79,9.83,11.01c22.02,18.97,56.53,12.94,73.34-9.96C810.81,508.43,804.18,469.2,776.37,452.31z"/>
	<circle cx="946" cy="424" r="29"/>
</g>
</svg>
